<?xml version="1.0" standalone="no"?>
<!DOCTYPE svg PUBLIC "-//W3C//DTD SVG 20010904//EN"
 "http://www.w3.org/TR/2001/REC-SVG-20010904/DTD/svg10.dtd">
<svg version="1.0" xmlns="http://www.w3.org/2000/svg"
 width="32.000000pt" height="32.000000pt" viewBox="0 0 32.000000 32.000000"
 preserveAspectRatio="xMidYMid meet">

<g transform="translate(0.000000,32.000000) scale(0.100000,-0.100000)"
fill="#000000" stroke="none">
<path d="M0 160 l0 -160 160 0 160 0 0 160 0 160 -160 0 -160 0 0 -160z m127
94 c-3 -3 -12 -4 -19 -1 -8 3 -5 6 6 6 11 1 17 -2 13 -5z m90 0 c-3 -3 -12 -4
-19 -1 -8 3 -5 6 6 6 11 1 17 -2 13 -5z m-140 -15 c-9 -6 -15 -15 -11 -20 3
-5 0 -8 -7 -7 -7 2 -18 -8 -26 -22 -10 -19 -13 -21 -13 -7 0 19 46 67 64 67 6
0 3 -5 -7 -11z m198 -19 c10 -11 16 -20 13 -20 -3 0 -13 9 -23 20 -10 11 -16
20 -13 20 3 0 13 -9 23 -20z m-82 4 c9 -3 13 -13 9 -26 -3 -14 -1 -19 6 -14 8
5 12 -1 11 -16 0 -13 -3 -17 -6 -10 -7 17 -20 15 -27 -4 -4 -10 -2 -13 6 -8 7
4 8 3 4 -4 -4 -7 -26 -12 -49 -12 -32 0 -48 7 -66 25 -13 14 -21 28 -17 32 3
3 6 1 6 -5 0 -7 7 -12 15 -12 9 0 12 6 9 18 -5 13 -4 14 4 3 11 -15 27 2 18
18 -11 17 45 28 77 15z m-144 -109 c16 -20 16 -20 -6 -1 -13 11 -23 26 -22 35
0 14 1 14 6 1 3 -8 13 -24 22 -35z m51 -5 c0 -5 -4 -10 -10 -10 -5 0 -10 5
-10 10 0 6 5 10 10 10 6 0 10 -4 10 -10z"/>
</g>
</svg>
